<svg width="1163" height="337" viewBox="0 0 1163 337" fill="none" xmlns="http://www.w3.org/2000/svg">
<path d="M814 275H861V332H826C819.373 332 814 326.627 814 320V275Z" fill="#404040"/>
<rect x="912" y="212" width="46" height="56" fill="#40788A"/>
<path d="M912 148H946C952.627 148 958 153.373 958 160V205H912V148Z" fill="#404040"/>
<rect x="866" y="148" width="41" height="57" fill="#40788A"/>
<path d="M814 160C814 153.373 819.373 148 826 148H861V205H814V160Z" fill="#404040"/>
<path d="M912 275H958V320C958 326.627 952.627 332 946 332H912V275Z" fill="#404040"/>
<rect x="866" y="275" width="41" height="57" fill="#40788A"/>
<rect x="814" y="212" width="47" height="56" fill="#40788A"/>
<path d="M991 275H1038V332H1003C996.373 332 991 326.627 991 320V275Z" fill="#404040"/>
<rect x="1089" y="212" width="46" height="56" fill="#40788A"/>
<path d="M1089 148H1123C1129.63 148 1135 153.373 1135 160V205H1089V148Z" fill="#404040"/>
<rect x="1043" y="148" width="41" height="57" fill="#40788A"/>
<path d="M991 160C991 153.373 996.373 148 1003 148H1038V205H991V160Z" fill="#404040"/>
<path d="M1089 275H1135V320C1135 326.627 1129.63 332 1123 332H1089V275Z" fill="#404040"/>
<rect x="1043" y="275" width="41" height="57" fill="#40788A"/>
<rect x="991" y="212" width="47" height="56" fill="#40788A"/>
<path d="M184 332H28.4V84.4H78V291.2H184V332ZM300.4 296.8C305.733 296.8 310.933 296.8 316 296.8C321.067 296.533 325.467 296.133 329.2 295.6V252.4C326 251.867 322.133 251.467 317.6 251.2C313.067 250.667 308.933 250.4 305.2 250.4C300.133 250.4 295.2 250.8 290.4 251.6C285.6 252.133 281.333 253.2 277.6 254.8C274.133 256.4 271.333 258.667 269.2 261.6C267.067 264.533 266 268.4 266 273.2C266 281.733 269.2 287.867 275.6 291.6C282 295.067 290.267 296.8 300.4 296.8ZM296 139.2C311.467 139.2 324.267 141.067 334.4 144.8C344.8 148.267 353.067 153.333 359.2 160C365.333 166.4 369.733 174.4 372.4 184C375.067 193.333 376.4 203.867 376.4 215.6V327.6C369.2 329.2 358.533 331.067 344.4 333.2C330.267 335.333 314.4 336.4 296.8 336.4C284.8 336.4 273.867 335.333 264 333.2C254.4 331.067 246.133 327.6 239.2 322.8C232.267 317.733 226.933 311.333 223.2 303.6C219.467 295.6 217.6 285.867 217.6 274.4C217.6 263.467 219.733 254.267 224 246.8C228.267 239.333 234 233.333 241.2 228.8C248.4 224.267 256.667 221.067 266 219.2C275.333 217.067 285.067 216 295.2 216C308 216 319.333 217.067 329.2 219.2V213.2C329.2 203.867 326.267 196.133 320.4 190C314.533 183.6 304.4 180.4 290 180.4C280.667 180.4 271.6 181.067 262.8 182.4C254.267 183.733 247.333 185.333 242 187.2L235.2 147.6C241.333 145.467 250 143.6 261.2 142C272.4 140.133 284 139.2 296 139.2ZM491.2 294.8C503.2 294.8 512.4 294 518.8 292.4C525.2 290.533 528.4 286.933 528.4 281.6C528.4 278.133 527.333 275.2 525.2 272.8C523.333 270.4 520.533 268.4 516.8 266.8C513.333 264.933 509.2 263.2 504.4 261.6C499.867 260 495.067 258.4 490 256.8C482.8 254.667 475.467 252.267 468 249.6C460.533 246.667 453.733 243.067 447.6 238.8C441.467 234.533 436.4 229.2 432.4 222.8C428.4 216.133 426.4 207.867 426.4 198C426.4 190 427.867 182.533 430.8 175.6C434 168.4 438.8 162.133 445.2 156.8C451.867 151.2 460.267 146.933 470.4 144C480.533 140.8 492.667 139.2 506.8 139.2C519.067 139.2 530.4 140.133 540.8 142C551.467 143.867 560.667 146.533 568.4 150L560.8 191.6C556.267 190.267 549.2 188.133 539.6 185.2C530 182 519.2 180.4 507.2 180.4C494.667 180.4 486.133 182 481.6 185.2C477.333 188.133 475.2 191.333 475.2 194.8C475.2 197.733 476.133 200.4 478 202.8C480.133 204.933 482.8 206.933 486 208.8C489.467 210.667 493.333 212.533 497.6 214.4C502.133 216 506.933 217.6 512 219.2C519.2 221.6 526.667 224.267 534.4 227.2C542.133 230.133 549.067 233.867 555.2 238.4C561.6 242.667 566.8 248.267 570.8 255.2C574.8 261.867 576.8 270.133 576.8 280C576.8 287.733 575.333 295.067 572.4 302C569.467 308.933 564.533 314.933 557.6 320C550.933 325.067 542.133 329.067 531.2 332C520.267 334.933 506.8 336.4 490.8 336.4C474.533 336.4 460.667 334.533 449.2 330.8C437.733 327.067 428.533 323.733 421.6 320.8L429.2 279.6C438.533 283.333 448.4 286.8 458.8 290C469.467 293.2 480.267 294.8 491.2 294.8ZM691.2 294.8C703.2 294.8 712.4 294 718.8 292.4C725.2 290.533 728.4 286.933 728.4 281.6C728.4 278.133 727.333 275.2 725.2 272.8C723.333 270.4 720.533 268.4 716.8 266.8C713.333 264.933 709.2 263.2 704.4 261.6C699.867 260 695.067 258.4 690 256.8C682.8 254.667 675.467 252.267 668 249.6C660.533 246.667 653.733 243.067 647.6 238.8C641.467 234.533 636.4 229.2 632.4 222.8C628.4 216.133 626.4 207.867 626.4 198C626.4 190 627.867 182.533 630.8 175.6C634 168.4 638.8 162.133 645.2 156.8C651.867 151.2 660.267 146.933 670.4 144C680.533 140.8 692.667 139.2 706.8 139.2C719.067 139.2 730.4 140.133 740.8 142C751.467 143.867 760.667 146.533 768.4 150L760.8 191.6C756.267 190.267 749.2 188.133 739.6 185.2C730 182 719.2 180.4 707.2 180.4C694.667 180.4 686.133 182 681.6 185.2C677.333 188.133 675.2 191.333 675.2 194.8C675.2 197.733 676.133 200.4 678 202.8C680.133 204.933 682.8 206.933 686 208.8C689.467 210.667 693.333 212.533 697.6 214.4C702.133 216 706.933 217.6 712 219.2C719.2 221.6 726.667 224.267 734.4 227.2C742.133 230.133 749.067 233.867 755.2 238.4C761.6 242.667 766.8 248.267 770.8 255.2C774.8 261.867 776.8 270.133 776.8 280C776.8 287.733 775.333 295.067 772.4 302C769.467 308.933 764.533 314.933 757.6 320C750.933 325.067 742.133 329.067 731.2 332C720.267 334.933 706.8 336.4 690.8 336.4C674.533 336.4 660.667 334.533 649.2 330.8C637.733 327.067 628.533 323.733 621.6 320.8L629.2 279.6C638.533 283.333 648.4 286.8 658.8 290C669.467 293.2 680.267 294.8 691.2 294.8Z" fill="#404040"/>
</svg>
